<?xml version="1.0" encoding="utf-8"?><svg viewBox="0 0 511.99 511.99" xmlns="http://www.w3.org/2000/svg" xmlns:xlink="http://www.w3.org/1999/xlink"><style>:root>svg{display:none}:root>svg:target{display:block}</style><svg fill="none" viewBox="0 0 54 54" id="circle_1_icon" xmlns="http://www.w3.org/2000/svg"><path d="M53.164.738h-15.04a.782.782 0 000 1.563h14.259V8.73h-2.995V6.52a.782.782 0 00-1.563 0v2.21h-3.362V6.52a.782.782 0 00-1.563 0v2.21h-3.362V6.52a.782.782 0 00-1.563 0v2.21h-3.362V6.52a.782.782 0 00-1.563 0v2.21h-3.362V6.52a.782.782 0 00-1.563 0v2.21h-3.362V6.52a.782.782 0 00-1.563 0v2.21h-3.362V6.52a.781.781 0 10-1.563 0v2.21h-3.362V6.52a.782.782 0 00-1.563 0v2.21h-3.057V2.3h24.705a.782.782 0 000-1.562H1.519a.782.782 0 00-.781.781v17.077a.782.782 0 001.563 0v-8.303H8.73v3.057H6.52a.782.782 0 000 1.563h2.21v3.362H6.52a.782.782 0 000 1.563h2.21V23.2H6.52a.782.782 0 000 1.563h2.21v3.362H6.52a.782.782 0 000 1.563h2.21v3.363H6.52a.782.782 0 000 1.563h2.21v3.362H6.52a.782.782 0 000 1.563h2.21V42.9H6.52a.782.782 0 000 1.563h2.21v3.362H6.52a.782.782 0 000 1.563h2.21v2.994H2.3v-30.66a.782.782 0 00-1.562 0v31.442c0 .432.35.782.781.782h7.992c.432 0 .782-.35.782-.782v-3.776h29.542a.83.83 0 00.066-.004c.012 0 .024-.003.036-.005.013-.002.027-.003.04-.006l.037-.009c.012-.003.025-.005.037-.01l.033-.01.039-.015.028-.013a.31.31 0 00.041-.02l.025-.014.041-.025c.01-.006.018-.013.027-.02.012-.008.024-.016.035-.026a.765.765 0 00.058-.052l8.782-8.781a.78.78 0 00.186-.301.78.78 0 00.04-.2l.001-.026.001-.026v-7.203a.782.782 0 00-1.563 0v6.421h-8a.782.782 0 00-.782.782v8h-28.75V10.293H33.05v.781a.782.782 0 001.563 0v-.781h13.212v19.203a.781.781 0 001.563 0V10.293h3.776c.432 0 .782-.35.782-.782V1.52a.782.782 0 00-.782-.781zM8.73 8.73H2.3V2.3h6.43v6.43zm31.876 31.876h6.114l-6.114 6.114v-6.114z" fill="#fff"/><path d="M33.831 31.131a.782.782 0 00-.781.782v1.563a.782.782 0 001.563 0v-1.563a.781.781 0 00-.782-.782zm0-4.48a.782.782 0 00-.781.782v1.562a.782.782 0 001.563 0v-1.563a.782.782 0 00-.782-.781zM26.79 33.05h-1.563a.781.781 0 000 1.563h1.563a.782.782 0 000-1.563zm-13.441 0h-1.563a.782.782 0 000 1.563h1.563a.782.782 0 000-1.563zm4.481 0h-1.564a.782.782 0 000 1.563h1.563a.782.782 0 000-1.563zm4.48 0h-1.563a.782.782 0 000 1.563h1.563a.782.782 0 000-1.563zm8.96 0h-1.563a.782.782 0 000 1.563h1.563a.782.782 0 000-1.563zm2.561-10.88a.782.782 0 00-.781.782v1.563a.782.782 0 001.563 0v-1.563a.782.782 0 00-.782-.781zm0-8.96a.782.782 0 00-.781.781v1.563a.782.782 0 001.563 0v-1.563a.782.782 0 00-.782-.781zm0 4.48a.782.782 0 00-.781.782v1.563a.782.782 0 001.563 0v-1.563a.782.782 0 00-.782-.782z" fill="#fff"/></svg><svg fill="none" viewBox="0 0 53 47" id="circle_2_icon" xmlns="http://www.w3.org/2000/svg"><path d="M51.188 13.34h-8.293l4.952-5.512c.275-.307.415-.702.393-1.112a1.532 1.532 0 00-.51-1.064L45.6 3.739a1.542 1.542 0 00-2.175.117l-8.52 9.485H20.077a.776.776 0 100 1.552H33.51l-3.464 3.856a1.531 1.531 0 00-.378 1.256l-1.19 3.22a1.228 1.228 0 00.333 1.347 1.23 1.23 0 001.375.187l3.076-1.53c.02.001.038.003.058.003.028 0 .056 0 .084-.002a1.53 1.53 0 001.064-.51l7.031-7.827h9.688a.26.26 0 01.26.26v29.911a.259.259 0 01-.26.259H45.54a.776.776 0 100 1.553h5.648c1 0 1.812-.813 1.812-1.812V15.152c0-1-.813-1.811-1.812-1.811zM46.684 6.8l-.922 1.026L43.65 5.93l.923-1.027L46.684 6.8zm-4.071.285l.478.43L31.69 20.206l-.479-.43L42.613 7.085zM30.78 21.478l.897.806-1.464.728.567-1.534zm2.542.196l-.479-.429L44.246 8.551l.478.43-11.402 12.693z" fill="#fff"/><path d="M42.16 45.323H7.24a5.694 5.694 0 01-5.687-5.688v-.41a5.693 5.693 0 015.687-5.688h1.596c.999 0 1.811-.812 1.811-1.811V14.893h6.049a.776.776 0 100-1.552h-6.049v-2.696a.776.776 0 10-1.553 0v21.08a.259.259 0 01-.258.26H7.24a7.231 7.231 0 00-5.687 2.764V7.24A5.694 5.694 0 017.24 1.553h1.596c.142 0 .258.116.258.259v5.452a.776.776 0 101.553 0V1.812c0-1-.812-1.812-1.811-1.812H7.24C3.248 0 0 3.248 0 7.24v32.395c0 3.992 3.248 7.24 7.24 7.24h34.92a.776.776 0 000-1.552z" fill="#fff"/><path d="M41.426 21.537a5.976 5.976 0 00-5.957 5.611h-3.575a.776.776 0 00-.776.777v8.868c0 .429.348.776.777.776h8.868a.776.776 0 00.776-.776v-3.319a5.976 5.976 0 005.857-5.967 5.977 5.977 0 00-5.97-5.97zm-1.44 10.145a4.434 4.434 0 01-2.811-2.981h2.812v2.98zm-7.315 4.335V28.7h2.906a5.989 5.989 0 004.41 4.6v2.716H32.67zm8.869-4.096v-3.996a.777.777 0 00-.777-.777h-3.738a4.422 4.422 0 014.402-4.058 4.422 4.422 0 014.417 4.417 4.422 4.422 0 01-4.304 4.414z" fill="#fff"/><path d="M44.31 34.013a.776.776 0 100 1.553h1.728a.776.776 0 100-1.553H44.31zm2.504 2.78a.776.776 0 00-.776-.776H44.31a.776.776 0 100 1.552h1.727a.776.776 0 00.776-.776zM14.182 21.228h1.242a.776.776 0 100-1.553h-1.242a.777.777 0 000 1.553zm0 2.262h5.993a.776.776 0 100-1.553h-5.993a.776.776 0 000 1.553zm4.75-2.262h1.243a.776.776 0 100-1.553h-1.243a.777.777 0 000 1.553zm5.993-1.553h-1.242a.777.777 0 000 1.553h1.242a.776.776 0 100-1.553zm-10.743 6.06h5.993a.776.776 0 100-1.553h-5.993a.776.776 0 000 1.553zm-.777 1.468c0 .429.348.776.777.776h9.501a.776.776 0 100-1.553h-9.501a.776.776 0 00-.777.777zm12.297 2.245a.776.776 0 00-.777-.777H14.182a.776.776 0 000 1.553h10.743c.43 0 .777-.347.777-.776zm-8.604 3.617a.776.776 0 00-.777-.777h-2.14a.776.776 0 00-.776.777v2.139c0 .429.348.776.777.776h2.14a.776.776 0 00.776-.776v-2.14zm-1.553 1.363h-.587v-.587h.587v.587zm6.685-1.363a.776.776 0 00-.776-.777h-2.14a.776.776 0 00-.776.777v2.139c0 .429.348.776.776.776h2.14a.776.776 0 00.776-.776v-2.14zm-1.553 1.363h-.586v-.587h.586v.587zm6.687-1.363a.776.776 0 00-.777-.777h-2.139a.776.776 0 00-.776.777v2.139c0 .429.347.776.776.776h2.14a.776.776 0 00.776-.776v-2.14zm-1.553 1.363h-.587v-.587h.587v.587zm-9.49 3.312h-2.14a.776.776 0 00-.776.777v2.139c0 .429.348.776.777.776h2.14a.776.776 0 00.776-.776v-2.14a.776.776 0 00-.777-.776zm-.776 2.14h-.587v-.587h.587v.586zm5.909-2.14h-2.14a.776.776 0 00-.776.777v2.139c0 .429.348.776.776.776h2.14a.776.776 0 00.776-.776v-2.14a.776.776 0 00-.776-.776zm-.777 2.14h-.586v-.587h.586v.586zm3.771 1.552h2.14a.776.776 0 00.776-.776v-2.14a.777.777 0 00-.777-.776h-2.139a.776.776 0 00-.776.776v2.14c0 .429.347.776.776.776zm.776-2.139h.587v.586h-.587v-.586z" fill="#fff"/></svg><svg fill="none" viewBox="0 0 47 53" id="circle_3_icon" xmlns="http://www.w3.org/2000/svg"><path d="M43.972 6.187h-2.516V2.57A2.573 2.573 0 0038.886 0H5.708a2.573 2.573 0 00-2.57 2.57v3.617H.776a.776.776 0 100 1.553h2.362v3.617a2.573 2.573 0 002.57 2.57h1.126v2.475c0 1.7 1.383 3.083 3.083 3.083.557 0 1.08-.15 1.53-.408v3.73c0 1.7 1.384 3.084 3.085 3.084 1.7 0 3.083-1.383 3.083-3.084v-8.88h2.942a.776.776 0 100-1.553H19.48c.28-.472.442-1.022.442-1.61V6.86c.472.28 1.023.442 1.61.442a3.166 3.166 0 003.163-3.163V1.553h14.191c.56 0 1.017.456 1.017 1.017v8.787c0 .561-.456 1.018-1.017 1.018H24.18a.776.776 0 100 1.552h14.706a2.573 2.573 0 002.57-2.57V7.74h2.516c.42 0 .763.342.763.763v7.922c0 .688-.46 1.305-1.12 1.502l-20.82 6.201a1.795 1.795 0 00-1.274 1.71V27.2h-3.478a1.983 1.983 0 00-1.98 1.981v1.07c0 1 .747 1.829 1.713 1.96l-1.433 14.377C16.002 50.011 18.693 53 22.148 53c3.44 0 6.146-2.975 5.804-6.412l-.503-5.049a.776.776 0 10-1.545.154l.503 5.05a4.283 4.283 0 01-4.26 4.704 4.283 4.283 0 01-4.259-4.705l1.446-14.51h5.627l.582 5.838a.776.776 0 101.545-.154l-.567-5.684h.172a1.983 1.983 0 001.981-1.982v-1.069a1.983 1.983 0 00-1.981-1.981h-3.62v-1.362c0-.102.068-.192.165-.221l20.82-6.202a3.139 3.139 0 002.23-2.99V8.503a2.318 2.318 0 00-2.316-2.316zM11.448 16.402a1.532 1.532 0 01-3.062 0v-2.475h3.062v2.475zm4.614 6.405a1.531 1.531 0 01-3.061.001v-8.88h3.061v8.88zm5.47-17.058c-.888 0-1.61-.723-1.61-1.61a.776.776 0 10-1.553 0v6.625c0 .888-.722 1.61-1.61 1.61H5.71a1.019 1.019 0 01-1.018-1.017V2.57c0-.56.456-1.017 1.017-1.017h17.434v2.586c0 .887-.722 1.61-1.61 1.61zm5.161 23.004c.232 0 .428.196.428.428v1.07a.434.434 0 01-.428.428h-8.65a.434.434 0 01-.428-.429v-1.069c0-.232.196-.428.428-.428h8.65z" fill="#fff"/><path d="M22.148 44.288a2.607 2.607 0 00-2.604 2.604 2.606 2.606 0 002.604 2.603 2.606 2.606 0 002.603-2.603 2.606 2.606 0 00-2.604-2.604zm0 3.655a1.052 1.052 0 010-2.102 1.052 1.052 0 010 2.102z" fill="#fff"/></svg><svg fill="none" viewBox="0 0 53 53" id="circle_4_icon" xmlns="http://www.w3.org/2000/svg"><path d="M50.35 16.783H25.617a2.653 2.653 0 00-2.65 2.65V50.35a2.653 2.653 0 002.65 2.65H50.35A2.653 2.653 0 0053 50.35V19.433a2.653 2.653 0 00-2.65-2.65zm.883 33.567a.884.884 0 01-.883.883H25.617a.884.884 0 01-.884-.883V19.433c0-.488.396-.883.884-.883H50.35c.488 0 .883.395.883.883V50.35z" fill="#fff"/><path d="M46.817 20.317H29.15a2.653 2.653 0 00-2.65 2.65v2.65a2.653 2.653 0 002.65 2.65h17.667a2.653 2.653 0 002.65-2.65v-2.65a2.653 2.653 0 00-2.65-2.65zm.883 5.3a.884.884 0 01-.883.883H29.15a.884.884 0 01-.883-.883v-2.65c0-.488.395-.883.883-.884h17.667c.487 0 .883.396.883.884v2.65zm-15.9 4.416h-1.767a1.769 1.769 0 00-1.766 1.767v1.767a1.769 1.769 0 001.766 1.766H31.8a1.769 1.769 0 001.767-1.766V31.8a1.769 1.769 0 00-1.767-1.767zm-1.767 3.534V31.8H31.8v1.767h-1.767zm8.834-3.534H37.1a1.769 1.769 0 00-1.767 1.767v1.767a1.769 1.769 0 001.767 1.766h1.767a1.769 1.769 0 001.766-1.766V31.8a1.769 1.769 0 00-1.766-1.767zM37.1 33.567V31.8h1.767v1.767H37.1zm8.833-3.534h-1.766A1.769 1.769 0 0042.4 31.8v1.767a1.769 1.769 0 001.767 1.766h1.766a1.769 1.769 0 001.767-1.766V31.8a1.769 1.769 0 00-1.767-1.767zm-1.766 3.534V31.8h1.766l.001 1.767h-1.767zM31.8 37.1h-1.767a1.769 1.769 0 00-1.766 1.767v1.766a1.769 1.769 0 001.766 1.767H31.8a1.769 1.769 0 001.767-1.767v-1.766A1.769 1.769 0 0031.8 37.1zm-1.767 3.533v-1.766H31.8v1.766h-1.767zm8.834-3.533H37.1a1.769 1.769 0 00-1.767 1.767v1.766A1.769 1.769 0 0037.1 42.4h1.767a1.769 1.769 0 001.766-1.767v-1.766a1.769 1.769 0 00-1.766-1.767zM37.1 40.633v-1.766h1.767v1.766H37.1zm8.833-3.533h-1.766a1.769 1.769 0 00-1.767 1.767v1.766a1.769 1.769 0 001.767 1.767h1.766a1.769 1.769 0 001.767-1.767v-1.766a1.769 1.769 0 00-1.767-1.767zm-1.766 3.533v-1.766h1.766l.001 1.766h-1.767zM31.8 44.167h-1.767a1.769 1.769 0 00-1.766 1.766V47.7a1.769 1.769 0 001.766 1.767H31.8a1.769 1.769 0 001.767-1.767v-1.767a1.769 1.769 0 00-1.767-1.766zM30.033 47.7v-1.767H31.8V47.7h-1.767zm8.834-3.533H37.1a1.769 1.769 0 00-1.767 1.766V47.7a1.769 1.769 0 001.767 1.767h1.767a1.769 1.769 0 001.766-1.767v-1.767a1.769 1.769 0 00-1.766-1.766zM37.1 47.7v-1.767h1.767V47.7H37.1zm8.833-3.533h-1.766a1.769 1.769 0 00-1.767 1.766V47.7a1.769 1.769 0 001.767 1.767h1.766A1.769 1.769 0 0047.7 47.7v-1.767a1.769 1.769 0 00-1.767-1.766zM44.167 47.7v-1.767h1.766l.001 1.767h-1.767z" fill="#fff"/><path d="M1.767 48.584V12.367h7.95a2.653 2.653 0 002.65-2.65v-7.95H34.45c.488 0 .883.395.883.883v12.367H37.1V2.65A2.653 2.653 0 0034.45 0H12.215a2.633 2.633 0 00-1.874.776L.776 10.341A2.634 2.634 0 000 12.215v36.369a2.653 2.653 0 002.65 2.65H21.2v-1.767H2.65a.884.884 0 01-.883-.883zM10.6 3.016v6.7a.884.884 0 01-.883.884H3.016L10.6 3.016z" fill="#fff"/><path d="M19.433 22.083a7.066 7.066 0 10-7.066 7.067 7.075 7.075 0 007.066-7.067zm-7.95-5.22v3.454a.884.884 0 01-.883.883H7.147a5.305 5.305 0 014.336-4.337zm.884 10.52a5.304 5.304 0 01-5.22-4.416H10.6a2.653 2.653 0 002.65-2.65v-3.454a5.297 5.297 0 01-.883 10.52zm6.625-17.666a1.327 1.327 0 001.325-1.325v-2.65a1.327 1.327 0 00-1.325-1.325h-2.65c-.732 0-1.324.593-1.325 1.325v2.65c0 .731.593 1.324 1.325 1.325h2.65zm-2.209-3.534h1.767V7.95h-1.767V6.183zm5.3-.883a.883.883 0 111.767 0 .883.883 0 01-1.767 0zm3.534 0c0-.488.395-.883.883-.883h6.183a.883.883 0 010 1.766H26.5a.883.883 0 01-.883-.883zm-3.534 3.533a.883.883 0 111.767 0 .883.883 0 01-1.767 0zm3.534 0c0-.488.395-.883.883-.883h6.183a.883.883 0 010 1.767H26.5a.883.883 0 01-.883-.884zm-10.6 3.534a.883.883 0 111.766 0 .883.883 0 01-1.766 0zm3.533 0c0-.488.395-.884.883-.884h9.717a.883.883 0 110 1.767h-9.717a.883.883 0 01-.883-.883zm13.25 0a.883.883 0 111.767 0 .883.883 0 01-1.767 0zm-11.925 18.55h-2.65c-.732 0-1.324.593-1.325 1.325v2.65c0 .731.593 1.324 1.325 1.325h2.65a1.327 1.327 0 001.325-1.325v-2.65a1.327 1.327 0 00-1.325-1.325zm-.442 3.533h-1.766v-1.767h1.766v1.767zm-7.066-2.65a.883.883 0 111.766 0 .883.883 0 01-1.766 0zm-8.834 0c0-.488.396-.883.884-.883h5.3a.883.883 0 010 1.766h-5.3a.883.883 0 01-.884-.883zm8.834 3.533a.883.883 0 111.766 0 .883.883 0 01-1.766 0zm-8.834 0c0-.487.396-.883.884-.883h5.3a.883.883 0 010 1.767h-5.3a.883.883 0 01-.884-.884zm0 10.159a1.327 1.327 0 001.325 1.325h2.65a1.326 1.326 0 001.325-1.325v-2.65c0-.732-.593-1.325-1.325-1.325h-2.65c-.731 0-1.324.593-1.325 1.325v2.65zM5.3 43.283h1.767v1.767H5.3v-1.767zm5.3-.883a.883.883 0 111.767 0 .883.883 0 01-1.767 0zm3.533 0c0-.488.396-.883.884-.883h5.3a.883.883 0 110 1.766h-5.3a.883.883 0 01-.884-.883zM10.6 45.933a.883.883 0 111.767 0 .883.883 0 01-1.767 0zm3.533 0c0-.487.396-.883.884-.883h5.3a.883.883 0 110 1.767h-5.3a.883.883 0 01-.884-.884zm5.3-7.066a.883.883 0 111.767 0 .883.883 0 01-1.767 0zm-12.366 0c0-.488.395-.884.883-.884h8.833a.883.883 0 110 1.767H7.95a.883.883 0 01-.883-.883zm-3.534 0a.883.883 0 111.767 0 .883.883 0 01-1.767 0z" fill="#fff"/></svg><svg fill="none" viewBox="0 0 29 19" id="menuIcon" xmlns="http://www.w3.org/2000/svg"><rect width="14.271" height="3.171" rx="1.586" fill="#fff"/><rect x="16.65" width="11.893" height="3.171" rx="1.586" fill="#fff"/><rect x="5.55" y="7.929" width="22.993" height="3.171" rx="1.586" fill="#fff"/><rect y="7.929" width="3.171" height="3.171" rx="1.586" fill="#fff"/><rect y="15.857" width="28.543" height="3" rx="1.5" fill="#fff"/></svg><svg viewBox="0 0 511.993 511.993" id="next" xmlns="http://www.w3.org/2000/svg"><path d="M487.292 235.408H20.59c-11.372 0-20.59 9.224-20.59 20.59s9.217 20.59 20.59 20.59h466.702c11.372 0 20.59-9.217 20.59-20.59s-9.217-20.59-20.59-20.59z"/><path d="M505.96 241.434L304.187 39.653c-8.044-8.037-21.07-8.037-29.114 0-8.044 8.044-8.044 21.084 0 29.121l187.216 187.223-187.216 187.224c-8.044 8.037-8.044 21.077 0 29.114 4.022 4.022 9.286 6.033 14.557 6.033s10.535-2.011 14.557-6.033l201.773-201.78c8.044-8.044 8.044-21.085 0-29.121z"/></svg><svg fill="none" viewBox="0 0 30 30" id="phoneIcon" xmlns="http://www.w3.org/2000/svg"><circle cx="14.668" cy="14.668" r="14.668" fill="#fff"/><path d="M12.542 13.876a.543.543 0 00-.014-.121l-.974-4.297a.549.549 0 00-.346-.394 3.121 3.121 0 00-1.055-.182A3.156 3.156 0 007 12.033a10.916 10.916 0 006.055 9.807.548.548 0 00.492-.98 9.825 9.825 0 01-5.45-8.827 2.054 2.054 0 012.46-2.016l.81 3.577-.909.5a.549.549 0 00-.253.663 8.296 8.296 0 005.037 5.037.548.548 0 00.662-.253l.501-.91 3.576.81a2.059 2.059 0 01-2.016 2.46 9.85 9.85 0 01-2.018-.205.548.548 0 00-.223 1.074c.738.152 1.489.23 2.242.229a3.156 3.156 0 002.973-4.202.547.547 0 00-.395-.352l-4.299-.974a.548.548 0 00-.601.27l-.469.851a7.209 7.209 0 01-3.768-3.768l.85-.467a.55.55 0 00.285-.482zm10.09 1.851a.547.547 0 00.548-.549A8.188 8.188 0 0015 7a.548.548 0 100 1.096 7.09 7.09 0 017.082 7.082.55.55 0 00.549.549z" fill="#322823"/><path d="M20.602 15.304a.55.55 0 00.549-.548 5.732 5.732 0 00-5.726-5.726.548.548 0 100 1.097 4.634 4.634 0 014.63 4.629.55.55 0 00.547.548z" fill="#322823"/><path d="M16.011 11.169a.548.548 0 000 1.096 1.906 1.906 0 011.904 1.904.548.548 0 101.096 0 3.003 3.003 0 00-3-3z" fill="#322823"/></svg><svg fill="none" viewBox="0 0 17 16" id="viber" xmlns="http://www.w3.org/2000/svg"><path d="M10.458 0H6.19a6.272 6.272 0 00-3.265.91.35.35 0 10.365.6A5.57 5.57 0 016.19.7h4.268c3.027 0 5.49 2.405 5.49 5.361v1.942c0 2.956-2.463 5.36-5.49 5.36H6.891a.35.35 0 00-.221.078l-1.817 1.474V13.47a.35.35 0 00-.252-.336c-2.296-.676-3.9-2.786-3.9-5.131V6.06a5.201 5.201 0 01.607-2.453.35.35 0 00-.62-.327A5.977 5.977 0 000 6.061v1.942c0 2.567 1.694 4.884 4.152 5.723v1.924a.35.35 0 00.57.272l2.293-1.858h3.443c3.413 0 6.19-2.72 6.19-6.061V6.06c0-3.34-2.777-6.06-6.19-6.06z" fill="#fff" fill-opacity=".8"/><path d="M6.754 6.596a.347.347 0 00-.008-.077l-.623-2.746a.35.35 0 00-.221-.252 1.995 1.995 0 00-.674-.117A2.017 2.017 0 003.213 5.42a6.976 6.976 0 003.87 6.268.35.35 0 00.314-.626A6.279 6.279 0 013.914 5.42a1.313 1.313 0 011.572-1.288l.518 2.286-.581.32a.35.35 0 00-.162.423 5.302 5.302 0 003.22 3.219.35.35 0 00.422-.162l.32-.58 2.286.517a1.316 1.316 0 01-1.288 1.573c-.434 0-.866-.045-1.29-.132a.35.35 0 00-.143.686 7.06 7.06 0 001.433.146 2.017 2.017 0 001.9-2.685.35.35 0 00-.253-.225l-2.747-.622a.35.35 0 00-.384.172l-.3.544A4.607 4.607 0 016.03 7.203l.544-.299a.351.351 0 00.181-.308zm6.449 1.184a.35.35 0 00.35-.351 5.233 5.233 0 00-5.226-5.227.35.35 0 000 .7 4.531 4.531 0 014.526 4.527.35.35 0 00.35.35z" fill="#fff" fill-opacity=".8"/><path d="M11.905 7.51a.35.35 0 00.35-.351 3.663 3.663 0 00-3.658-3.66.35.35 0 100 .701 2.962 2.962 0 012.958 2.959.35.35 0 00.35.35z" fill="#fff" fill-opacity=".8"/><path d="M8.972 4.866a.35.35 0 000 .701 1.218 1.218 0 011.216 1.217.35.35 0 10.701 0 1.92 1.92 0 00-1.917-1.918z" fill="#fff" fill-opacity=".8"/></svg><svg fill="none" viewBox="0 0 17 16" id="whatsApp" xmlns="http://www.w3.org/2000/svg"><path d="M16.057 7.724c0 4.267-3.485 7.725-7.784 7.725a7.8 7.8 0 01-3.613-.881.408.408 0 00-.312-.029l-3.4 1.08a.396.396 0 01-.496-.504l1.094-3.227a.408.408 0 00-.035-.335A7.642 7.642 0 01.488 7.724C.488 3.458 3.973 0 8.273 0c4.3 0 7.784 3.458 7.784 7.724zM8.273 1.23c-3.61 0-6.545 2.913-6.545 6.494 0 1.348.416 2.6 1.128 3.64a.41.41 0 01.052.363l-.5 1.474a.396.396 0 00.496.505l1.588-.505a.41.41 0 01.34.045 6.54 6.54 0 003.44.973c3.61 0 6.546-2.913 6.546-6.494S11.882 1.23 8.273 1.23zm3.93 8.273c-.047-.078-.175-.126-.365-.22-.191-.095-1.13-.553-1.304-.616-.175-.063-.303-.095-.43.094-.127.19-.492.616-.604.742-.111.127-.222.143-.413.048-.191-.095-.806-.295-1.535-.94a5.708 5.708 0 01-1.061-1.31c-.111-.19-.012-.292.084-.387.085-.084.19-.22.286-.331.096-.11.127-.19.19-.316.064-.126.033-.237-.015-.332-.048-.094-.43-1.026-.589-1.405-.159-.38-.318-.316-.43-.316-.11 0-.238-.016-.365-.016a.704.704 0 00-.509.237c-.175.19-.667.648-.667 1.58 0 .93.683 1.83.779 1.957.095.126 1.32 2.1 3.26 2.858 1.94.758 1.94.505 2.29.474.349-.032 1.128-.458 1.287-.9.159-.443.159-.822.112-.9z" fill="#fff" fill-opacity=".8"/></svg></svg>