<?xml version="1.0" encoding="iso-8859-1"?><svg viewBox="0 0 512 512" xmlns="http://www.w3.org/2000/svg" xmlns:xlink="http://www.w3.org/1999/xlink"><style>:root>svg{display:none}:root>svg:target{display:block}</style><svg viewBox="0 0 512.001 512.001" id="svg--svg" xmlns="http://www.w3.org/2000/svg"><path d="M494.145 80.27L426.069 9.296C420.4 3.388 412.457 0 404.271 0H134.884c-16.654 0-30.203 13.549-30.203 30.203v94.531H48.098c-21.311 0-38.649 17.339-38.649 38.65v74.181c0 21.311 17.338 38.649 38.649 38.649h56.583v205.584c0 16.654 13.549 30.203 30.203 30.203h337.465c16.654 0 30.203-13.549 30.203-30.203V101.177a30.074 30.074 0 00-8.407-20.907zM413.43 39.491l50.485 52.634H413.43V39.491zM48.098 246.192c-4.757 0-8.627-3.87-8.627-8.627v-74.181c0-4.757 3.87-8.628 8.627-8.628h190.19c4.757 0 8.627 3.871 8.627 8.628v74.181c0 4.757-3.87 8.627-8.627 8.627H48.098zM472.53 481.797a.182.182 0 01-.181.181H134.884a.181.181 0 01-.181-.181V276.214h103.585c21.311 0 38.649-17.338 38.649-38.649v-74.181c0-21.312-17.338-38.65-38.649-38.65H134.703V30.203c0-.1.081-.181.181-.181H383.41v76.675l.002.219-.002.219c0 8.29 6.721 15.011 15.011 15.011h74.11v359.651z"/><path d="M75.232 181.391c0-3.187 2.981-6.169 10.281-6.169 8.43 0 10.384 3.907 14.084 3.907 4.524 0 6.375-5.655 6.375-8.431 0-8.019-15.011-9.048-20.459-9.048-12.852 0-26.32 5.86-26.32 21.282 0 24.058 32.591 21.899 32.591 34.339 0 4.936-5.243 6.786-9.973 6.786-9.562 0-12.646-7.609-17.478-7.609-3.907 0-6.991 5.141-6.991 8.636 0 6.786 11.309 13.366 24.778 13.366 14.907 0 25.704-8.02 25.704-22.825 0-25.906-32.592-23.954-32.592-34.234zM160.051 162.269c-2.571 0-4.627.823-5.244 2.981l-14.29 52.742-14.394-52.742c-.616-2.16-2.673-2.981-5.243-2.981-4.421 0-10.28 2.776-10.28 6.58 0 .308.103.72.205 1.131l19.226 62.715c1.13 3.599 5.757 5.346 10.487 5.346s9.356-1.747 10.487-5.346l19.122-62.715c.104-.411.206-.823.206-1.131-.001-3.804-5.862-6.58-10.282-6.58zM221.12 197.943h-17.274c-3.084 0-4.832 3.187-4.832 6.169 0 3.187 1.747 6.169 4.832 6.169h6.066v3.495c0 6.991-3.496 10.281-9.253 10.281s-9.151-3.29-9.151-10.281V186.53c0-6.991 3.393-10.281 9.253-10.281 8.739 0 9.048 5.552 9.151 9.254.104 3.701 3.702 4.832 8.02 4.832 5.449 0 8.02-1.439 8.02-7.609 0-13.057-11.104-20.46-25.806-20.46-13.469 0-24.675 6.58-24.675 24.264v27.246c0 17.684 11.001 24.264 25.188 24.264 14.188 0 25.291-6.58 25.291-24.264V202.98c.001-2.672-1.746-5.037-4.83-5.037z"/></svg><svg viewBox="0 -22 512 511" id="svg--svg2" xmlns="http://www.w3.org/2000/svg"><path d="M399.313 67.855H114.18c-37.672 0-68.211 30.54-68.211 68.211v284.555h421.554V136.066c0-37.671-30.539-68.21-68.21-68.21zm0 0" fill="#efe1f9"/><path d="M45.969 383.18h421.554v37.652H45.97zm0 0" fill="#d7c6e5"/><path d="M132.41 67.855c-37.664 0-68.207 30.54-68.207 68.215v284.551H46.715v-284.55c0-37.676 30.539-68.216 68.219-68.216zm0 0" fill="#d7c6e5"/><path d="M388.86 360.32H124.628c-21.164 0-38.324-17.156-38.324-38.324v-175.48c0-21.164 17.16-38.325 38.324-38.325h264.23c21.164 0 38.325 17.16 38.325 38.325v175.48c0 21.168-17.157 38.324-38.325 38.324zm0 0" fill="#c3edfc"/><path d="M475.145 400.66H38.348c-16.168 0-29.278 13.106-29.278 29.274s13.11 29.273 29.278 29.273h436.797c16.167 0 29.273-13.105 29.273-29.273s-13.106-29.274-29.273-29.274zm0 0" fill="#efe1f9"/><path d="M500.586 444.418c-5.047 8.836-14.547 14.789-25.445 14.789H38.348c-8.09 0-15.407-3.273-20.707-8.57a29.185 29.185 0 01-8.57-20.703c0-16.164 13.1-29.266 29.277-29.266h12.199c-2.445 4.266-3.832 9.207-3.832 14.477a29.188 29.188 0 008.574 20.703 29.185 29.185 0 0020.703 8.57zm0 0" fill="#d7c6e5"/><path d="M311.176 429.934H202.312c-16.167 0-29.273-13.106-29.273-29.274h167.41c.004 16.168-13.105 29.274-29.273 29.274zm0 0" fill="#d7c6e5"/><path d="M469.652 8.082H358.594c-18.375 0-33.27 14.895-33.27 33.27v76.668c0 18.375 14.895 33.27 33.27 33.27h111.058c18.375 0 33.27-14.895 33.27-33.27V41.352c0-18.375-14.899-33.27-33.27-33.27zm0 0" fill="#ff557e"/><path d="M418.438 208.773h-87.286c-15.414 0-27.906 12.497-27.906 27.907v69.242c0 15.414 12.492 27.906 27.906 27.906h87.285c15.415 0 27.907-12.492 27.907-27.906V236.68c0-15.41-12.492-27.907-27.906-27.907zm0 0" fill="#80e29d"/><path d="M216.457 134.297H51.907c-24.481 0-44.325 19.844-44.325 44.324v89.645c0 24.48 19.844 44.324 44.324 44.324h164.551c24.477 0 44.324-19.844 44.324-44.324V178.62c0-24.48-19.847-44.324-44.324-44.324zm0 0" fill="#617ed1"/><path d="M475.145 393.078h-.04V158.496c19.954-2.672 35.399-19.8 35.399-40.476V41.352C510.504 18.824 492.176.5 469.652.5H358.594c-22.524 0-40.852 18.324-40.852 40.852v18.921h-125.39a7.582 7.582 0 100 15.164h125.39v25.172h-193.11a45.881 45.881 0 00-41.437 26.11h-28.91c1.98-12.84 8.008-24.668 17.434-33.922 11.402-11.195 26.48-17.36 42.46-17.36h47.844a7.582 7.582 0 100-15.164H114.18c-19.977 0-38.828 7.707-53.082 21.7C48.336 94.5 40.563 110.805 38.8 128.395 16.504 134.219 0 154.527 0 178.62v89.645c0 23.945 16.305 44.144 38.39 50.109v74.703h-.042c-20.325 0-36.86 16.535-36.86 36.856 0 20.324 16.535 36.855 36.86 36.855h364.14a7.581 7.581 0 100-15.16H38.348c-11.961 0-21.696-9.734-21.696-21.695s9.735-21.692 21.696-21.692h7.535c.031 0 .058.004.09.004h120.273c3.508 16.695 18.344 29.27 36.067 29.27h108.863c17.722 0 32.558-12.575 36.066-29.27h120.281c.028 0 .059-.004.086-.004h7.536c11.96 0 21.69 9.73 21.69 21.692 0 11.96-9.73 21.695-21.69 21.695h-42.329a7.581 7.581 0 100 15.16h42.329c20.324 0 36.855-16.531 36.855-36.855 0-20.32-16.535-36.856-36.855-36.856zM358.594 15.664h111.058c14.164 0 25.688 11.524 25.688 25.688v76.668c0 14.164-11.524 25.687-25.688 25.687H358.594c-14.164 0-25.688-11.523-25.688-25.687V41.352c0-14.164 11.524-25.688 25.688-25.688zM124.633 115.77h193.11v2.25c0 22.527 18.323 40.851 40.85 40.851h61.012v42.352c-.39-.012-.777-.028-1.168-.028h-87.285c-19.566 0-35.488 15.918-35.488 35.489v69.242c0 19.566 15.922 35.488 35.488 35.488h81.508c-5.734 6.977-14.43 11.324-23.797 11.324h-264.23c-16.953 0-30.742-13.789-30.742-30.742v-1.824h122.566c28.621 0 51.906-23.285 51.906-51.906V178.62c0-28.621-23.285-51.906-51.906-51.906H101.109a30.738 30.738 0 0123.524-10.945zm293.805 210.476h-87.286c-11.207 0-20.324-9.117-20.324-20.324V236.68c0-11.207 9.117-20.325 20.324-20.325h87.285c11.208 0 20.325 9.122 20.325 20.325v69.242c0 11.207-9.117 20.324-20.325 20.324zm-403.274-57.98V178.62c0-20.258 16.48-36.742 36.742-36.742h164.551c20.258 0 36.742 16.484 36.742 36.742v89.645c0 20.257-16.484 36.742-36.742 36.742H51.907c-20.262 0-36.743-16.485-36.743-36.742zm38.39 51.906h25.173v1.824c0 25.313 20.593 45.906 45.906 45.906h264.23c18.817 0 35.825-11.746 42.684-29.011 13.098-5.227 22.379-18.028 22.379-32.97V236.68c0-13.68-7.79-25.57-19.16-31.493v-46.316h25.171v234.207H53.555zm257.622 102.18H202.312c-9.292 0-17.238-5.875-20.324-14.106H331.5c-3.082 8.23-11.027 14.106-20.324 14.106zm0 0"/><path d="M209.344 180.094h17.117a7.581 7.581 0 000-15.16h-17.117c-4.184 0-7.582 3.394-7.582 7.578a7.584 7.584 0 007.582 7.582zm0 0M113.54 180.094h68.577a7.581 7.581 0 100-15.16H113.54a7.581 7.581 0 100 15.16zm0 0M41.902 180.094H86.31a7.581 7.581 0 100-15.16H41.902a7.581 7.581 0 100 15.16zm0 0M226.46 266.793h-83.605a7.581 7.581 0 100 15.16h83.606a7.581 7.581 0 000-15.16zm0 0M112.527 266.793h-25.14a7.581 7.581 0 100 15.16h25.14a7.581 7.581 0 100-15.16zm0 0M64.645 274.371a7.581 7.581 0 00-7.582-7.578h-15.16a7.581 7.581 0 100 15.16h15.16a7.582 7.582 0 007.582-7.582zm0 0M226.46 232.836h-33.179a7.582 7.582 0 100 15.164h33.18c4.184 0 7.578-3.395 7.578-7.582s-3.394-7.582-7.578-7.582zm0 0M41.902 248h121.051a7.582 7.582 0 100-15.164H41.903a7.582 7.582 0 100 15.164zm0 0M86.95 206.469a7.581 7.581 0 007.581 7.578h131.93a7.58 7.58 0 000-15.16H94.53a7.58 7.58 0 00-7.582 7.582zm0 0M41.902 214.047h22.301a7.581 7.581 0 100-15.16h-22.3a7.581 7.581 0 100 15.16zm0 0M436.48 117.852a7.56 7.56 0 005.364 2.218 7.557 7.557 0 005.36-2.218l32.804-32.805a7.585 7.585 0 002.222-5.36c0-2.011-.8-3.94-2.222-5.363l-32.805-32.8a7.582 7.582 0 00-10.723 10.722l27.446 27.441-27.446 27.442a7.582 7.582 0 000 10.723zm0 0M381.04 117.852c1.483 1.48 3.42 2.218 5.362 2.218s3.883-.738 5.364-2.218a7.582 7.582 0 000-10.723L364.32 79.687l27.446-27.44a7.582 7.582 0 00-10.723-10.724l-32.805 32.801a7.587 7.587 0 00-2.222 5.364c0 2.007.8 3.937 2.222 5.359zm0 0M402.027 136.965a7.581 7.581 0 008.984-5.852l21.06-99.722a7.578 7.578 0 00-5.852-8.985c-4.094-.863-8.121 1.754-8.985 5.852l-21.058 99.722a7.578 7.578 0 005.851 8.985zm0 0M412.66 233.383a7.586 7.586 0 00-10.289 3.027l-31.047 56.945-18.074-20.953a7.58 7.58 0 00-10.691-.789 7.58 7.58 0 00-.79 10.692l25.223 29.25a7.604 7.604 0 006.547 2.586 7.578 7.578 0 005.856-3.91l36.293-66.56a7.585 7.585 0 00-3.028-10.288zm0 0"/></svg></svg>