<?xml version="1.0" encoding="utf-8"?><svg viewBox="0 0 30 30" xmlns="http://www.w3.org/2000/svg" xmlns:xlink="http://www.w3.org/1999/xlink"><style>:root>svg{display:none}:root>svg:target{display:block}</style><svg fill="none" viewBox="0 0 29 19" id="header--menuIcon" xmlns="http://www.w3.org/2000/svg"><rect width="14.271" height="3.171" rx="1.586" fill="#fff"/><rect x="16.65" width="11.893" height="3.171" rx="1.586" fill="#fff"/><rect x="5.55" y="7.929" width="22.993" height="3.171" rx="1.586" fill="#fff"/><rect y="7.929" width="3.171" height="3.171" rx="1.586" fill="#fff"/><rect y="15.857" width="28.543" height="3" rx="1.5" fill="#fff"/></svg><svg fill="none" viewBox="0 0 30 30" id="header--phoneIcon" xmlns="http://www.w3.org/2000/svg"><circle cx="14.668" cy="14.668" r="14.668" fill="#fff"/><path d="M12.542 13.876a.543.543 0 00-.014-.121l-.974-4.297a.549.549 0 00-.346-.394 3.121 3.121 0 00-1.055-.182A3.156 3.156 0 007 12.033a10.916 10.916 0 006.055 9.807.548.548 0 00.492-.98 9.825 9.825 0 01-5.45-8.827 2.054 2.054 0 012.46-2.016l.81 3.577-.909.5a.549.549 0 00-.253.663 8.296 8.296 0 005.037 5.037.548.548 0 00.662-.253l.501-.91 3.576.81a2.059 2.059 0 01-2.016 2.46 9.85 9.85 0 01-2.018-.205.548.548 0 00-.223 1.074c.738.152 1.489.23 2.242.229a3.156 3.156 0 002.973-4.202.547.547 0 00-.395-.352l-4.299-.974a.548.548 0 00-.601.27l-.469.851a7.209 7.209 0 01-3.768-3.768l.85-.467a.55.55 0 00.285-.482zm10.09 1.851a.547.547 0 00.548-.549A8.188 8.188 0 0015 7a.548.548 0 100 1.096 7.09 7.09 0 017.082 7.082.55.55 0 00.549.549z" fill="#322823"/><path d="M20.602 15.304a.55.55 0 00.549-.548 5.732 5.732 0 00-5.726-5.726.548.548 0 100 1.097 4.634 4.634 0 014.63 4.629.55.55 0 00.547.548z" fill="#322823"/><path d="M16.011 11.169a.548.548 0 000 1.096 1.906 1.906 0 011.904 1.904.548.548 0 101.096 0 3.003 3.003 0 00-3-3z" fill="#322823"/></svg><svg fill="none" viewBox="0 0 17 16" id="header--viber" xmlns="http://www.w3.org/2000/svg"><path d="M10.458 0H6.19a6.272 6.272 0 00-3.265.91.35.35 0 10.365.6A5.57 5.57 0 016.19.7h4.268c3.027 0 5.49 2.405 5.49 5.361v1.942c0 2.956-2.463 5.36-5.49 5.36H6.891a.35.35 0 00-.221.078l-1.817 1.474V13.47a.35.35 0 00-.252-.336c-2.296-.676-3.9-2.786-3.9-5.131V6.06a5.201 5.201 0 01.607-2.453.35.35 0 00-.62-.327A5.977 5.977 0 000 6.061v1.942c0 2.567 1.694 4.884 4.152 5.723v1.924a.35.35 0 00.57.272l2.293-1.858h3.443c3.413 0 6.19-2.72 6.19-6.061V6.06c0-3.34-2.777-6.06-6.19-6.06z" fill="#fff" fill-opacity=".8"/><path d="M6.754 6.596a.347.347 0 00-.008-.077l-.623-2.746a.35.35 0 00-.221-.252 1.995 1.995 0 00-.674-.117A2.017 2.017 0 003.213 5.42a6.976 6.976 0 003.87 6.268.35.35 0 00.314-.626A6.279 6.279 0 013.914 5.42a1.313 1.313 0 011.572-1.288l.518 2.286-.581.32a.35.35 0 00-.162.423 5.302 5.302 0 003.22 3.219.35.35 0 00.422-.162l.32-.58 2.286.517a1.316 1.316 0 01-1.288 1.573c-.434 0-.866-.045-1.29-.132a.35.35 0 00-.143.686 7.06 7.06 0 001.433.146 2.017 2.017 0 001.9-2.685.35.35 0 00-.253-.225l-2.747-.622a.35.35 0 00-.384.172l-.3.544A4.607 4.607 0 016.03 7.203l.544-.299a.351.351 0 00.181-.308zm6.449 1.184a.35.35 0 00.35-.351 5.233 5.233 0 00-5.226-5.227.35.35 0 000 .7 4.531 4.531 0 014.526 4.527.35.35 0 00.35.35z" fill="#fff" fill-opacity=".8"/><path d="M11.905 7.51a.35.35 0 00.35-.351 3.663 3.663 0 00-3.658-3.66.35.35 0 100 .701 2.962 2.962 0 012.958 2.959.35.35 0 00.35.35z" fill="#fff" fill-opacity=".8"/><path d="M8.972 4.866a.35.35 0 000 .701 1.218 1.218 0 011.216 1.217.35.35 0 10.701 0 1.92 1.92 0 00-1.917-1.918z" fill="#fff" fill-opacity=".8"/></svg><svg fill="none" viewBox="0 0 17 16" id="header--whatsApp" xmlns="http://www.w3.org/2000/svg"><path d="M16.057 7.724c0 4.267-3.485 7.725-7.784 7.725a7.8 7.8 0 01-3.613-.881.408.408 0 00-.312-.029l-3.4 1.08a.396.396 0 01-.496-.504l1.094-3.227a.408.408 0 00-.035-.335A7.642 7.642 0 01.488 7.724C.488 3.458 3.973 0 8.273 0c4.3 0 7.784 3.458 7.784 7.724zM8.273 1.23c-3.61 0-6.545 2.913-6.545 6.494 0 1.348.416 2.6 1.128 3.64a.41.41 0 01.052.363l-.5 1.474a.396.396 0 00.496.505l1.588-.505a.41.41 0 01.34.045 6.54 6.54 0 003.44.973c3.61 0 6.546-2.913 6.546-6.494S11.882 1.23 8.273 1.23zm3.93 8.273c-.047-.078-.175-.126-.365-.22-.191-.095-1.13-.553-1.304-.616-.175-.063-.303-.095-.43.094-.127.19-.492.616-.604.742-.111.127-.222.143-.413.048-.191-.095-.806-.295-1.535-.94a5.708 5.708 0 01-1.061-1.31c-.111-.19-.012-.292.084-.387.085-.084.19-.22.286-.331.096-.11.127-.19.19-.316.064-.126.033-.237-.015-.332-.048-.094-.43-1.026-.589-1.405-.159-.38-.318-.316-.43-.316-.11 0-.238-.016-.365-.016a.704.704 0 00-.509.237c-.175.19-.667.648-.667 1.58 0 .93.683 1.83.779 1.957.095.126 1.32 2.1 3.26 2.858 1.94.758 1.94.505 2.29.474.349-.032 1.128-.458 1.287-.9.159-.443.159-.822.112-.9z" fill="#fff" fill-opacity=".8"/></svg></svg>