<svg id="Capa_1" enable-background="new 0 0 512 512" height="512" viewBox="0 0 512 512" width="512" xmlns="http://www.w3.org/2000/svg"><g><path d="m446.19 406.109c-.004 0-.008 0-.012 0-4.136 0-7.492 3.349-7.499 7.486l-.099 60.944c-.019 12.386-10.11 22.463-22.496 22.463h-320.77c-12.404 0-22.496-10.091-22.496-22.496v-315.023h52.527c4.142 0 7.499-3.357 7.499-7.499 0-4.141-3.357-7.499-7.499-7.499h-52.527v-67.603c0-14.777 9.31-26.153 23.167-31.285l6.66-2.466c14.029-5.302 28.49-9.927 42.981-13.747 4.005-1.055 6.395-5.158 5.34-9.162-1.055-4.005-5.162-6.393-9.161-5.34-14.991 3.951-29.951 8.736-44.415 14.202l-6.613 2.449c-19.712 7.3-32.956 24.329-32.956 45.349v397.625c-.001 20.674 16.819 37.493 37.493 37.493h320.771c20.642 0 37.462-16.794 37.493-37.436l.099-60.944c.007-4.141-3.345-7.504-7.487-7.511z"/><path d="m421.711 31.283-4.169-1.593c-76.687-29.304-159.928-37.105-240.728-22.56-4.075.734-6.785 4.633-6.051 8.708.733 4.077 4.634 6.784 8.708 6.052 78.107-14.061 158.579-6.52 232.717 21.809l4.169 1.593c13.675 5.226 22.848 16.574 22.824 31.215l-.105 67.98h-276.99c-4.142 0-7.499 3.357-7.499 7.499 0 4.141 3.357 7.499 7.499 7.499h276.968l-.329 218.221c-.006 4.141 3.346 7.504 7.487 7.51h.012c4.136 0 7.493-3.35 7.499-7.487l.457-301.199c.034-20.826-13.015-37.814-32.469-45.247z"/><path d="m102.233 68.935v48.299c0 9.096 7.4 16.497 16.497 16.497h273.892c9.096 0 16.497-7.401 16.497-16.497v-48.299c0-9.096-7.401-16.497-16.497-16.497h-273.892c-9.097 0-16.497 7.401-16.497 16.497zm291.889 0v48.299c0 .827-.673 1.5-1.5 1.5h-273.892c-.827 0-1.5-.673-1.5-1.5v-48.299c0-.827.673-1.5 1.5-1.5h273.892c.827 0 1.5.673 1.5 1.5z"/><path d="m102.233 192.163v255.141c0 9.648 7.849 17.497 17.497 17.497h271.893c9.648 0 17.497-7.849 17.497-17.497v-255.141c0-9.648-7.849-17.497-17.497-17.497h-271.893c-9.648.001-17.497 7.85-17.497 17.497zm17.497-2.499h79.8v76.715h-82.3v-74.216c0-1.378 1.121-2.499 2.5-2.499zm274.392 168.428h-82.298v-76.715h82.298zm-97.296 0h-82.299v-76.715h82.299zm0 14.997v76.715h-82.299v-76.715zm-179.596-91.712h82.299v76.715h-82.299zm97.297-14.998v-76.715h82.299v76.715zm-97.297 180.926v-74.215h82.299v76.715h-79.8c-1.378-.001-2.499-1.122-2.499-2.5zm274.393 2.499h-79.799v-76.715h82.298v74.215c0 1.379-1.121 2.5-2.499 2.5zm2.499-257.641v74.216h-82.298v-76.715h79.799c1.378 0 2.499 1.121 2.499 2.499z"/><path d="m242.556 329.252h6.79v6.79c0 4.141 3.357 7.499 7.499 7.499s7.499-3.357 7.499-7.499v-6.79h6.454c4.142 0 7.499-3.357 7.499-7.499 0-4.141-3.357-7.499-7.499-7.499h-6.454v-6.454c0-4.141-3.357-7.499-7.499-7.499s-7.499 3.357-7.499 7.499v6.454h-6.79c-4.142 0-7.499 3.357-7.499 7.499.001 4.141 3.357 7.499 7.499 7.499z"/><path d="m340.766 221.985 4.801 4.801-4.801 4.801c-2.928 2.929-2.928 7.676.001 10.605 1.464 1.465 3.383 2.196 5.302 2.196s3.838-.732 5.303-2.196l4.801-4.801 4.563 4.563c1.465 1.465 3.383 2.196 5.303 2.196 1.919 0 3.838-.732 5.303-2.196 2.928-2.928 2.928-7.676 0-10.605l-4.564-4.564 4.564-4.564c2.928-2.929 2.928-7.676-.001-10.605-2.927-2.929-7.675-2.928-10.605 0l-4.563 4.563-4.8-4.801c-2.928-2.928-7.675-2.929-10.605 0-2.93 2.93-2.93 7.678-.002 10.607z"/><path d="m169.128 314.162h-28.241c-4.142 0-7.499 3.357-7.499 7.499s3.357 7.499 7.499 7.499h28.241c4.142 0 7.499-3.357 7.499-7.499s-3.357-7.499-7.499-7.499z"/><path d="m341.932 101.84h28.241c4.142 0 7.499-3.357 7.499-7.499s-3.357-7.499-7.499-7.499h-28.241c-4.142 0-7.499 3.357-7.499 7.499s3.358 7.499 7.499 7.499z"/><path d="m281.017 101.84h28.242c4.142 0 7.499-3.357 7.499-7.499s-3.357-7.499-7.499-7.499h-28.242c-4.142 0-7.499 3.357-7.499 7.499s3.357 7.499 7.499 7.499z"/><path d="m370.173 393.745h-28.241c-4.142 0-7.499 3.357-7.499 7.499 0 4.141 3.357 7.499 7.499 7.499h28.241c4.142 0 7.499-3.357 7.499-7.499 0-4.141-3.357-7.499-7.499-7.499z"/><path d="m370.173 421.903h-28.241c-4.142 0-7.499 3.357-7.499 7.499s3.357 7.499 7.499 7.499h28.241c4.142 0 7.499-3.357 7.499-7.499s-3.357-7.499-7.499-7.499z"/><path d="m240.087 430.548c1.453 1.392 3.321 2.083 5.186 2.083 1.973 0 3.944-.774 5.417-2.312l20.702-21.618c2.864-2.991 2.761-7.738-.229-10.602-2.991-2.865-7.738-2.762-10.603.229l-20.702 21.618c-2.864 2.991-2.762 7.737.229 10.602z"/><path d="m273.361 211.382h-13.618c-3.198 0-6.3 1.324-8.512 3.634l-16.489 17.218c-2.864 2.991-2.761 7.738.229 10.602 1.453 1.392 3.321 2.083 5.186 2.083 1.973 0 3.944-.774 5.417-2.312l15.54-16.227h12.247c4.142 0 7.499-3.357 7.499-7.499s-3.357-7.499-7.499-7.499z"/><path d="m155.008 408.609c-4.187 0-7.582 3.394-7.582 7.582 0 4.187 3.395 7.582 7.582 7.582s7.582-3.395 7.582-7.582c0-4.188-3.395-7.582-7.582-7.582z"/><path d="m340.515 338.127c1.453 1.392 3.321 2.083 5.186 2.083 1.973 0 3.944-.774 5.417-2.312l20.703-21.618c2.864-2.991 2.761-7.738-.229-10.602-2.991-2.865-7.737-2.763-10.603.229l-20.703 21.618c-2.864 2.991-2.762 7.737.229 10.602z"/><path d="m340.36 313.928c4.187 0 7.582-3.395 7.582-7.582s-3.394-7.582-7.582-7.582c-4.187 0-7.582 3.394-7.582 7.582 0 4.187 3.394 7.582 7.582 7.582z"/><path d="m364.165 337.122c0 4.187 3.395 7.582 7.582 7.582s7.582-3.395 7.582-7.582-3.395-7.582-7.582-7.582c-4.188 0-7.582 3.394-7.582 7.582z"/><path d="m135.794 251.862c4.072.733 7.976-1.971 8.711-6.048l.916-5.076 1.655 5.609c.026.09.055.179.084.268 1.134 3.373 4.279 5.632 7.834 5.632h.042c3.574-.018 6.716-2.313 7.82-5.711.028-.087.055-.174.08-.262l1.593-5.589.995 5.206c.777 4.069 4.714 6.735 8.773 5.958 4.068-.778 6.735-4.705 5.957-8.773l-6.334-33.137c-.748-3.676-3.886-6.39-7.631-6.602-3.716-.208-7.169 2.132-8.328 5.7-.027.086-.054.173-.079.26l-2.997 10.517-3.124-10.588c-.026-.089-.055-.178-.084-.266-1.194-3.556-4.643-5.872-8.385-5.615-3.743.25-6.853 2.997-7.582 6.77l-5.963 33.038c-.736 4.073 1.972 7.973 6.047 8.709z"/></g></svg>