<svg height="479pt" viewBox="0 -64 479.95339 479" width="479pt" xmlns="http://www.w3.org/2000/svg"><path d="m175.953125 48.429688c-70.691406 0-128 57.308593-128 128 0 70.691406 57.308594 128 128 128s128-57.308594 128-128c-.082031-70.65625-57.34375-127.914063-128-128zm0 240c-61.855469 0-112-50.144532-112-112 0-61.855469 50.144531-112 112-112s112 50.144531 112 112c-.066406 61.828124-50.171875 111.933593-112 112zm0 0"/><path d="m471.953125 272.429688h-136v-32h24c4.417969 0 8-3.582032 8-8v-80c0-4.417969-3.582031-8-8-8h-24v-75.839844c-.046875-.386719-.125-.769532-.230469-1.144532-.050781-.585937-.167968-1.164062-.34375-1.726562-.5-.839844-1.003906-1.675781-1.503906-2.511719l-.257812-.265625c-47.644532-52.140625-120.078126-73.902344-188.570313-56.652344-68.492187 17.253907-121.972656 70.730469-139.230469 139.222657-17.257812 68.492187 4.5 140.929687 56.640625 188.574219l.265625.257812c.398438.308594.828125.574219 1.277344.796875 1.175781.902344 2.632812 1.359375 4.113281 1.289063h259.839844c4.417969 0 8-3.582032 8-8v-8h128v16h-8c-4.417969 0-8 3.582031-8 8 0 4.417968 3.582031 8 8 8h16c4.417969 0 8-3.582032 8-8v-64c0-4.417969-3.582031-8-8-8zm-120-112v64h-16v-64zm-32 160h-248.632813c-46.652343-43.945313-65.710937-109.789063-49.742187-171.859376 15.972656-62.074218 64.441406-110.542968 126.511719-126.515624 62.074218-15.96875 127.917968 3.089843 171.863281 49.742187zm16-32h128v16h-128zm0 0"/><path d="m207.953125 96.429688h-64c-13.253906 0-24 10.746093-24 24v120c0 18.242187 24.070313 32 56 32s56-13.757813 56-32v-120c0-13.253907-10.746094-24-24-24zm-64 16h64c4.417969 0 8 3.582031 8 8v88h-80v-88c0-4.417969 3.582031-8 8-8zm32 144c-24.414063 0-40-9.480469-40-16v-16h80v16c0 6.519531-15.582031 16-40 16zm0 0"/><path d="m175.953125 200.429688c13.253906 0 24-10.746094 24-24v-32c0-13.253907-10.746094-24-24-24s-24 10.746093-24 24v32c0 13.253906 10.746094 24 24 24zm-8-56c0-4.417969 3.582031-8 8-8s8 3.582031 8 8v32c0 4.417968-3.582031 8-8 8s-8-3.582032-8-8zm0 0"/></svg>